<?xml version="1.0" standalone="no"?>
<!DOCTYPE svg PUBLIC "-//W3C//DTD SVG 20010904//EN"
 "http://www.w3.org/TR/2001/REC-SVG-20010904/DTD/svg10.dtd">
<svg version="1.0" xmlns="http://www.w3.org/2000/svg"
 width="700.000000pt" height="700.000000pt" viewBox="0 0 700.000000 700.000000"
 preserveAspectRatio="xMidYMid meet">
<metadata>
Created by potrace 1.11, written by Peter Selinger 2001-2013
</metadata>
<g transform="translate(0.000000,700.000000) scale(0.100000,-0.100000)"
fill="#000000" stroke="none">
<path d="M3278 6995 c-1 -1 -42 -5 -89 -9 -47 -4 -96 -9 -109 -11 -13 -2 -48
-7 -79 -10 -31 -3 -63 -7 -71 -10 -8 -2 -32 -6 -54 -10 -67 -9 -252 -53 -363
-85 -236 -69 -572 -212 -747 -318 -37 -23 -70 -42 -73 -42 -4 0 -128 -82 -239
-159 -98 -67 -303 -241 -411 -349 -494 -491 -838 -1119 -968 -1767 -8 -38 -16
-79 -18 -90 -3 -11 -8 -40 -12 -65 -3 -25 -9 -58 -11 -74 -3 -16 -7 -50 -9
-75 -3 -25 -8 -82 -12 -126 -15 -157 -8 -603 12 -706 2 -11 6 -45 9 -77 20
-215 123 -592 236 -862 338 -809 1006 -1496 1790 -1840 52 -23 113 -50 135
-60 192 -86 592 -189 875 -224 221 -28 644 -28 855 -1 125 17 258 40 365 65
696 160 1347 546 1820 1079 36 41 70 79 75 85 6 6 47 58 92 116 290 379 499
807 613 1260 38 150 39 155 46 200 2 19 6 42 9 50 2 8 7 35 10 60 3 25 8 52
10 60 2 8 7 47 11 85 3 39 8 84 11 100 2 17 5 138 7 270 3 216 0 308 -19 462
-92 775 -434 1484 -987 2043 -94 95 -168 164 -238 220 -30 25 -57 48 -60 51
-9 10 -163 125 -230 170 -193 133 -491 288 -717 373 -205 77 -490 153 -683
182 -19 3 -46 7 -60 9 -14 2 -50 7 -80 10 -30 4 -73 9 -95 12 -45 5 -541 13
-547 8z m532 -229 c14 -2 66 -10 115 -16 353 -44 686 -146 1020 -310 202 -100
339 -184 513 -312 152 -113 208 -163 372 -327 375 -376 642 -822 806 -1343 18
-60 36 -119 38 -131 3 -12 16 -71 29 -132 14 -60 30 -148 37 -195 6 -47 14
-96 16 -110 18 -115 25 -514 12 -665 -72 -787 -403 -1494 -957 -2046 -498
-495 -1117 -810 -1806 -918 -183 -29 -283 -36 -495 -36 -247 0 -459 19 -625
55 -22 5 -56 12 -75 15 -60 10 -304 77 -314 86 -6 5 -17 9 -26 9 -30 0 -211
72 -375 150 -538 253 -1015 670 -1340 1170 -54 83 -177 292 -184 312 -1 4 -24
54 -50 110 -120 255 -217 581 -261 868 -6 41 -13 86 -15 99 -20 121 -27 517
-12 682 21 249 72 496 154 744 209 640 626 1215 1167 1611 56 41 106 78 112
83 33 26 277 168 372 215 286 144 655 263 927 301 22 3 54 8 70 11 47 8 83 12
185 20 52 3 97 8 99 10 5 5 462 -4 491 -10z"/>
<path d="M3338 6604 c-2 -1 -42 -5 -90 -8 -49 -3 -121 -11 -160 -16 -40 -6
-86 -12 -103 -14 -41 -6 -265 -55 -274 -61 -4 -2 -18 -6 -32 -8 -43 -9 -252
-79 -339 -114 -308 -127 -644 -333 -880 -539 -75 -66 -254 -246 -315 -318
-322 -376 -560 -842 -670 -1316 -15 -64 -45 -226 -50 -275 -4 -33 -9 -62 -10
-65 -8 -14 -19 -224 -19 -370 -1 -183 7 -298 29 -440 24 -159 26 -169 60 -309
303 -1228 1340 -2158 2600 -2330 248 -34 589 -35 825 -1 127 18 146 22 279 52
424 96 806 272 1170 541 51 38 110 83 129 100 107 95 145 130 222 207 508 510
825 1199 887 1925 15 184 7 503 -17 660 -5 33 -12 80 -15 105 -58 416 -270
923 -543 1304 -341 474 -833 858 -1378 1074 -107 43 -309 109 -357 118 -17 2
-33 7 -37 9 -3 2 -17 6 -31 9 -13 3 -56 12 -95 20 -63 14 -112 22 -244 40
-110 15 -531 31 -542 20z m417 -228 c127 -14 223 -28 287 -42 37 -7 82 -16
100 -19 17 -3 34 -8 38 -10 4 -2 20 -6 36 -9 48 -9 272 -82 367 -121 141 -56
309 -142 447 -229 66 -41 231 -155 240 -166 3 -3 40 -35 83 -70 276 -230 513
-521 688 -845 30 -55 67 -129 83 -165 16 -36 37 -83 47 -105 42 -94 131 -380
154 -498 3 -15 7 -37 9 -50 3 -12 7 -40 11 -62 3 -22 10 -67 15 -100 30 -187
32 -522 5 -735 -10 -82 -17 -130 -25 -165 -5 -22 -11 -51 -13 -65 -76 -414
-317 -917 -601 -1255 -421 -499 -939 -821 -1566 -974 -323 -78 -751 -99 -1050
-51 -30 5 -72 11 -92 14 -21 3 -57 10 -80 15 -24 6 -54 12 -68 14 -52 10 -89
20 -215 59 -218 67 -442 166 -621 274 -74 44 -253 162 -264 174 -3 3 -39 32
-80 65 -375 300 -691 725 -865 1165 -20 52 -41 104 -45 115 -23 55 -78 245
-96 330 -12 54 -34 175 -39 215 -3 25 -8 52 -10 60 -23 90 -23 641 0 713 2 7
6 36 10 66 3 30 8 64 10 75 3 12 7 32 9 46 28 171 120 459 207 648 22 46 39
85 39 87 0 2 30 56 66 121 63 114 203 327 241 369 10 11 43 52 75 90 275 341
709 655 1133 823 186 73 436 145 580 166 22 4 54 8 70 11 73 11 105 15 185 21
47 3 86 7 87 8 6 5 355 -2 408 -8z"/>
<path d="M3348 6295 c-2 -2 -47 -6 -100 -10 -175 -12 -227 -37 -233 -115 -2
-33 17 -84 38 -97 7 -5 18 -16 26 -26 12 -15 -7 -38 -201 -232 -118 -118 -218
-215 -222 -215 -4 0 -82 75 -175 168 -205 205 -202 202 -240 207 -39 5 -135
-43 -289 -145 -81 -54 -116 -84 -128 -108 -32 -68 -22 -83 212 -317 l214 -216
-112 -112 c-62 -61 -161 -160 -219 -219 l-107 -108 -210 210 c-115 115 -223
215 -238 221 -40 15 -86 4 -116 -29 -40 -42 -155 -218 -194 -298 -28 -55 -35
-79 -29 -102 4 -21 61 -85 191 -216 101 -102 184 -188 184 -192 0 -11 -428
-434 -439 -434 -6 0 -11 4 -11 9 0 17 -69 64 -97 67 -40 4 -90 -21 -106 -53
-56 -108 -56 -755 0 -865 16 -34 57 -55 98 -53 40 3 38 3 61 23 11 9 30 26 42
36 l23 20 214 -215 c118 -118 215 -217 215 -222 0 -4 -81 -89 -181 -189 -99
-100 -185 -192 -190 -205 -17 -45 15 -117 126 -287 99 -152 139 -183 206 -157
15 5 122 104 238 220 l212 211 109 -108 c59 -59 158 -157 219 -218 l111 -112
-214 -215 c-148 -148 -216 -224 -220 -243 -9 -40 0 -73 25 -100 47 -50 324
-221 372 -230 15 -2 40 2 56 10 16 9 108 94 204 191 150 150 179 175 194 166
10 -6 109 -102 221 -214 147 -149 201 -209 196 -221 -3 -9 -10 -16 -14 -16
-16 0 -52 -62 -55 -93 -5 -66 37 -108 124 -121 176 -27 546 -27 721 0 66 10
100 31 116 71 20 46 11 81 -33 132 l-36 42 214 214 c118 118 218 215 222 215
4 0 91 -83 194 -185 102 -102 191 -186 197 -186 56 -7 76 -1 155 44 128 74
248 156 276 189 57 67 39 96 -205 340 -116 115 -210 210 -210 211 0 1 99 100
219 220 l219 218 212 -211 c116 -116 224 -216 238 -221 64 -25 111 8 194 136
117 181 148 243 143 285 -2 14 -4 28 -4 31 -1 4 -84 90 -186 192 -108 109
-183 191 -180 199 3 7 100 107 215 222 l209 209 41 -36 c22 -21 46 -37 53 -38
6 0 21 -2 31 -4 55 -10 106 39 120 115 19 110 27 449 13 605 -16 183 -28 218
-84 241 -46 20 -81 11 -132 -33 l-42 -35 -214 215 c-118 119 -215 219 -215
222 0 4 83 90 184 192 131 131 187 193 191 215 8 37 -34 127 -123 264 -104
159 -146 191 -214 165 -15 -6 -123 -105 -239 -220 l-212 -211 -106 108 c-59
59 -157 157 -219 218 l-112 112 215 217 c121 122 218 227 221 241 18 71 -35
125 -244 251 -126 76 -164 89 -206 73 -14 -5 -106 -91 -205 -190 -98 -99 -182
-180 -186 -180 -4 0 -104 96 -221 214 -154 154 -212 218 -208 230 3 9 10 16
14 16 13 0 51 57 56 85 2 14 -2 40 -10 59 -22 53 -49 63 -216 82 -50 6 -407
13 -412 9z m293 -260 c3 -22 10 -49 16 -60 6 -11 153 -161 327 -334 l315 -314
51 5 51 5 193 193 c107 106 196 193 199 194 8 2 107 -57 107 -64 0 -3 -88 -94
-195 -201 -192 -191 -227 -236 -220 -274 2 -11 4 -27 4 -35 1 -21 621 -640
657 -655 17 -8 39 -12 50 -10 10 2 25 4 32 4 7 1 106 93 219 206 114 113 209
205 212 205 4 0 20 -24 38 -52 l32 -53 -201 -202 -201 -203 5 -51 5 -51 321
-321 321 -321 46 -1 c33 0 45 -4 46 -15 4 -41 5 -247 1 -257 -2 -7 -17 -13
-34 -13 -16 0 -39 -5 -51 -11 -12 -6 -163 -151 -335 -322 -328 -328 -334 -336
-317 -404 4 -18 78 -100 200 -223 l194 -195 -32 -53 c-18 -28 -35 -51 -39 -50
-4 2 -100 94 -212 206 -112 111 -210 202 -218 203 -7 0 -21 2 -32 4 -10 2 -30
-1 -45 -6 -14 -6 -167 -150 -339 -322 -334 -334 -347 -351 -320 -414 7 -15
101 -117 210 -227 109 -109 198 -201 198 -205 0 -3 -24 -20 -52 -38 l-53 -32
-201 200 -201 199 -49 0 -49 0 -327 -328 -328 -328 0 -45 0 -45 -137 1 -138 0
-3 45 c-3 45 -6 48 -330 373 -315 314 -329 327 -365 327 -21 0 -48 -5 -60 -11
-12 -6 -107 -96 -212 -200 l-190 -188 -52 32 c-29 17 -53 35 -53 38 0 4 90 97
200 206 109 110 204 212 210 227 24 64 10 82 -322 413 -172 172 -325 316 -339
322 -15 5 -35 8 -45 6 -11 -2 -25 -4 -33 -4 -7 -1 -105 -92 -217 -203 -112
-112 -207 -204 -211 -205 -4 -1 -22 21 -40 50 l-32 52 188 190 c104 105 194
200 200 212 6 12 11 39 11 59 0 36 -14 52 -323 361 -320 322 -323 324 -372
331 l-50 7 0 128 c-1 70 2 131 5 136 3 4 25 11 50 14 43 5 56 18 367 329 309
310 323 326 323 362 0 20 -5 47 -11 59 -6 12 -96 108 -200 212 l-188 190 32
53 c17 28 35 52 38 52 3 0 96 -90 206 -200 195 -194 230 -222 269 -215 11 2
26 4 34 4 8 1 157 144 332 319 347 345 356 357 324 423 -9 19 -104 121 -211
228 -107 107 -195 197 -195 201 0 7 98 66 107 64 3 -1 93 -89 200 -195 l194
-194 54 0 55 0 321 321 c308 308 321 322 326 365 3 24 10 46 14 49 5 3 66 6
136 5 l128 0 6 -40z"/>
<path d="M3461 5885 c-45 -20 -661 -637 -662 -664 -1 -12 -1 -28 -1 -36 0 -8
0 -23 1 -32 1 -16 581 -606 633 -644 26 -19 46 -23 97 -20 18 1 107 83 324
299 165 163 312 314 327 334 17 23 26 47 24 65 -1 15 -2 34 -3 41 -2 24 -627
641 -665 657 -42 18 -33 18 -75 0z m371 -804 c-59 -58 -158 -157 -220 -218
l-112 -112 -220 218 -219 219 220 220 219 220 220 -220 219 -220 -107 -107z"/>
<path d="M2605 5038 c-28 -16 -629 -619 -643 -645 -17 -31 -15 -74 6 -104 24
-37 612 -623 639 -637 36 -20 78 -14 119 17 46 34 594 585 618 621 19 28 21
72 5 103 -15 28 -572 590 -623 628 -41 31 -86 37 -121 17z m270 -473 c118
-118 215 -217 215 -220 0 -3 -97 -102 -216 -221 -213 -214 -216 -216 -236
-197 -11 10 -110 108 -220 217 l-199 199 23 25 c39 42 411 412 414 412 2 0
101 -97 219 -215z"/>
<path d="M4290 5035 c-14 -7 -166 -155 -337 -328 -297 -298 -313 -317 -313
-352 0 -20 5 -46 11 -58 16 -31 609 -625 641 -643 33 -17 72 -18 101 -2 27 14
615 600 639 637 23 33 23 80 1 111 -27 39 -615 626 -640 639 -29 15 -72 13
-103 -4z m293 -491 c89 -89 170 -171 180 -182 18 -20 15 -23 -199 -236 -214
-213 -217 -216 -238 -199 -36 31 -416 412 -416 418 0 2 97 102 216 221 l216
216 40 -38 c22 -22 113 -112 201 -200z"/>
<path d="M1765 4194 c-15 -8 -168 -155 -340 -328 -338 -338 -340 -340 -307
-410 17 -35 637 -656 657 -657 8 -1 25 -2 38 -3 12 -1 33 3 47 10 34 17 650
636 651 654 0 8 2 24 4 34 2 11 -2 33 -10 50 -17 42 -636 656 -661 657 -10 0
-27 2 -36 4 -9 2 -28 -3 -43 -11z m374 -581 l111 -112 -218 -220 -219 -220
-220 219 -220 220 220 220 220 221 107 -108 c59 -60 157 -158 219 -220z"/>
<path d="M3470 4203 c-37 -7 -657 -628 -669 -669 -19 -67 -13 -74 324 -411
208 -208 330 -323 344 -324 11 -1 28 -1 36 -1 8 0 22 0 31 1 9 0 161 146 339
324 227 227 323 330 327 350 12 63 4 74 -321 399 -174 175 -325 320 -336 324
-34 10 -49 11 -75 7z m250 -483 c116 -115 210 -214 210 -219 0 -6 -97 -107
-215 -225 l-216 -215 -219 219 -219 219 212 215 c117 118 218 215 225 215 7 1
107 -93 222 -209z"/>
<path d="M5132 4189 c-48 -30 -631 -623 -642 -652 -24 -65 -11 -81 328 -419
175 -175 323 -319 330 -319 7 -1 19 -1 27 -1 8 0 26 0 40 1 32 1 649 614 671
666 18 43 18 39 -2 78 -16 30 -634 656 -651 658 -53 6 -78 3 -101 -12z m281
-474 l214 -215 -217 -216 c-119 -120 -220 -217 -224 -216 -4 1 -104 98 -222
217 l-215 215 213 215 c117 118 218 214 225 215 6 0 108 -97 226 -215z"/>
<path d="M2605 3349 c-33 -19 -624 -612 -640 -641 -20 -36 -19 -78 2 -108 33
-47 632 -638 653 -645 12 -4 38 -4 58 0 30 5 83 55 341 312 168 168 314 317
323 332 22 32 23 73 4 109 -8 15 -154 166 -324 336 -300 299 -311 308 -353
312 -24 3 -53 -1 -64 -7z m273 -474 c214 -215 215 -216 196 -237 -45 -49 -417
-419 -420 -416 -19 18 -386 384 -408 406 l-28 30 216 216 c119 119 219 216
223 216 3 0 103 -97 221 -215z"/>
<path d="M3982 3048 c-172 -172 -320 -325 -328 -340 -19 -36 -18 -77 4 -109
22 -35 596 -609 631 -631 30 -20 73 -23 103 -7 11 6 162 152 334 325 334 335
342 346 315 412 -13 29 -612 632 -648 651 -12 6 -39 11 -59 11 -36 0 -52 -14
-352 -312z m584 -174 l217 -216 -220 -220 -219 -219 -217 216 c-119 119 -217
218 -217 221 0 8 424 433 432 434 4 0 105 -97 224 -216z"/>
<path d="M3455 2506 c-41 -19 -655 -637 -657 -662 0 -10 -2 -26 -3 -34 -1 -8
5 -28 13 -44 22 -45 636 -653 666 -658 58 -11 88 13 410 336 174 174 316 322
317 329 0 7 2 20 4 31 2 10 -1 30 -6 45 -10 25 -577 603 -629 640 -36 26 -80
33 -115 17z m260 -470 c118 -118 215 -219 215 -224 0 -5 -97 -106 -215 -224
l-216 -214 -214 215 c-118 118 -215 219 -215 224 0 8 419 435 428 437 2 0 100
-96 217 -214z"/>
</g>
</svg>
